<mxfile host="Electron" modified="2023-04-22T10:14:27.353Z" agent="Mozilla/5.0 (X11; Linux x86_64) AppleWebKit/537.36 (KHTML, like Gecko) draw.io/21.1.2 Chrome/106.0.5249.199 Electron/21.4.3 Safari/537.36" etag="bEdxlSGCx0nfnnsIFcYh" version="21.1.2" type="device">
  <diagram name="Page-1" id="y3FTkOQSsjoSYaR6CLrs">
    <mxGraphModel dx="1434" dy="781" grid="1" gridSize="10" guides="1" tooltips="1" connect="1" arrows="1" fold="1" page="1" pageScale="1" pageWidth="850" pageHeight="1100" math="0" shadow="0">
      <root>
        <mxCell id="0" />
        <mxCell id="1" parent="0" />
        <mxCell id="s0QtwD_j4Ik0lY6Wr4WI-43" value="" style="rounded=0;whiteSpace=wrap;html=1;fillColor=none;" parent="1" vertex="1">
          <mxGeometry x="210" y="205" width="490" height="465" as="geometry" />
        </mxCell>
        <mxCell id="s0QtwD_j4Ik0lY6Wr4WI-6" style="edgeStyle=orthogonalEdgeStyle;orthogonalLoop=1;jettySize=auto;html=1;exitX=0.5;exitY=0.5;exitDx=0;exitDy=0;exitPerimeter=0;entryX=0;entryY=0.5;entryDx=0;entryDy=0;curved=1;endArrow=none;endFill=0;" parent="1" source="s0QtwD_j4Ik0lY6Wr4WI-1" target="s0QtwD_j4Ik0lY6Wr4WI-4" edge="1">
          <mxGeometry relative="1" as="geometry" />
        </mxCell>
        <mxCell id="s0QtwD_j4Ik0lY6Wr4WI-7" style="edgeStyle=orthogonalEdgeStyle;orthogonalLoop=1;jettySize=auto;html=1;exitX=0.5;exitY=0.5;exitDx=0;exitDy=0;exitPerimeter=0;entryX=0;entryY=0.5;entryDx=0;entryDy=0;curved=1;endArrow=none;endFill=0;" parent="1" source="s0QtwD_j4Ik0lY6Wr4WI-1" target="s0QtwD_j4Ik0lY6Wr4WI-3" edge="1">
          <mxGeometry relative="1" as="geometry" />
        </mxCell>
        <mxCell id="s0QtwD_j4Ik0lY6Wr4WI-1" value="" style="shape=umlActor;verticalLabelPosition=bottom;verticalAlign=top;html=1;outlineConnect=0;" parent="1" vertex="1">
          <mxGeometry x="50" y="390" width="30" height="60" as="geometry" />
        </mxCell>
        <mxCell id="s0QtwD_j4Ik0lY6Wr4WI-14" style="edgeStyle=orthogonalEdgeStyle;orthogonalLoop=1;jettySize=auto;html=1;exitX=1;exitY=0.5;exitDx=0;exitDy=0;entryX=0;entryY=0.5;entryDx=0;entryDy=0;curved=1;endArrow=open;endFill=0;" parent="1" source="s0QtwD_j4Ik0lY6Wr4WI-3" target="s0QtwD_j4Ik0lY6Wr4WI-9" edge="1">
          <mxGeometry relative="1" as="geometry" />
        </mxCell>
        <mxCell id="s0QtwD_j4Ik0lY6Wr4WI-19" value="&amp;lt;&amp;lt;includes&amp;gt;&amp;gt;" style="edgeLabel;html=1;align=center;verticalAlign=middle;resizable=0;points=[];" parent="s0QtwD_j4Ik0lY6Wr4WI-14" vertex="1" connectable="0">
          <mxGeometry x="0.15" y="-4" relative="1" as="geometry">
            <mxPoint x="-13" y="1" as="offset" />
          </mxGeometry>
        </mxCell>
        <mxCell id="s0QtwD_j4Ik0lY6Wr4WI-21" style="edgeStyle=orthogonalEdgeStyle;orthogonalLoop=1;jettySize=auto;html=1;exitX=1;exitY=0.5;exitDx=0;exitDy=0;entryX=0;entryY=0.5;entryDx=0;entryDy=0;dashed=1;endArrow=none;endFill=0;curved=1;strokeColor=none;startArrow=classic;startFill=1;" parent="1" source="s0QtwD_j4Ik0lY6Wr4WI-3" target="s0QtwD_j4Ik0lY6Wr4WI-20" edge="1">
          <mxGeometry relative="1" as="geometry" />
        </mxCell>
        <mxCell id="s0QtwD_j4Ik0lY6Wr4WI-3" value="signup" style="ellipse;whiteSpace=wrap;html=1;" parent="1" vertex="1">
          <mxGeometry x="260" y="280" width="75" height="50" as="geometry" />
        </mxCell>
        <mxCell id="s0QtwD_j4Ik0lY6Wr4WI-32" style="edgeStyle=orthogonalEdgeStyle;orthogonalLoop=1;jettySize=auto;html=1;exitX=1;exitY=0.5;exitDx=0;exitDy=0;entryX=0;entryY=0.5;entryDx=0;entryDy=0;curved=1;endArrow=open;endFill=0;" parent="1" source="s0QtwD_j4Ik0lY6Wr4WI-4" target="s0QtwD_j4Ik0lY6Wr4WI-27" edge="1">
          <mxGeometry relative="1" as="geometry" />
        </mxCell>
        <mxCell id="s0QtwD_j4Ik0lY6Wr4WI-36" value="&amp;lt;&amp;lt;includes&amp;gt;&amp;gt;" style="edgeLabel;html=1;align=center;verticalAlign=middle;resizable=0;points=[];" parent="s0QtwD_j4Ik0lY6Wr4WI-32" vertex="1" connectable="0">
          <mxGeometry x="-0.2632" y="-3" relative="1" as="geometry">
            <mxPoint x="6" y="-3" as="offset" />
          </mxGeometry>
        </mxCell>
        <mxCell id="s0QtwD_j4Ik0lY6Wr4WI-4" value="login" style="ellipse;whiteSpace=wrap;html=1;" parent="1" vertex="1">
          <mxGeometry x="260" y="520" width="75" height="50" as="geometry" />
        </mxCell>
        <mxCell id="s0QtwD_j4Ik0lY6Wr4WI-47" style="edgeStyle=orthogonalEdgeStyle;orthogonalLoop=1;jettySize=auto;html=1;exitX=1;exitY=0.5;exitDx=0;exitDy=0;curved=1;endArrow=open;endFill=0;" parent="1" source="s0QtwD_j4Ik0lY6Wr4WI-9" target="s0QtwD_j4Ik0lY6Wr4WI-46" edge="1">
          <mxGeometry relative="1" as="geometry" />
        </mxCell>
        <mxCell id="s0QtwD_j4Ik0lY6Wr4WI-48" value="&amp;lt;&amp;lt;includes&amp;gt;&amp;gt;" style="edgeLabel;html=1;align=center;verticalAlign=middle;resizable=0;points=[];" parent="s0QtwD_j4Ik0lY6Wr4WI-47" vertex="1" connectable="0">
          <mxGeometry x="-0.2889" relative="1" as="geometry">
            <mxPoint x="14" as="offset" />
          </mxGeometry>
        </mxCell>
        <mxCell id="s0QtwD_j4Ik0lY6Wr4WI-9" value="validate data" style="ellipse;whiteSpace=wrap;html=1;" parent="1" vertex="1">
          <mxGeometry x="440" y="280" width="60" height="40" as="geometry" />
        </mxCell>
        <mxCell id="s0QtwD_j4Ik0lY6Wr4WI-23" style="edgeStyle=orthogonalEdgeStyle;orthogonalLoop=1;jettySize=auto;html=1;exitX=0;exitY=0.5;exitDx=0;exitDy=0;entryX=0.5;entryY=1;entryDx=0;entryDy=0;curved=1;endArrow=open;endFill=0;dashed=1;" parent="1" source="s0QtwD_j4Ik0lY6Wr4WI-20" target="s0QtwD_j4Ik0lY6Wr4WI-3" edge="1">
          <mxGeometry relative="1" as="geometry" />
        </mxCell>
        <mxCell id="s0QtwD_j4Ik0lY6Wr4WI-24" value="&amp;lt;&amp;lt;extends&amp;gt;&amp;gt;" style="edgeLabel;html=1;align=center;verticalAlign=middle;resizable=0;points=[];" parent="s0QtwD_j4Ik0lY6Wr4WI-23" vertex="1" connectable="0">
          <mxGeometry x="0.0319" y="-5" relative="1" as="geometry">
            <mxPoint x="19" as="offset" />
          </mxGeometry>
        </mxCell>
        <mxCell id="s0QtwD_j4Ik0lY6Wr4WI-20" value="display error" style="ellipse;whiteSpace=wrap;html=1;" parent="1" vertex="1">
          <mxGeometry x="440" y="350" width="60" height="40" as="geometry" />
        </mxCell>
        <mxCell id="s0QtwD_j4Ik0lY6Wr4WI-27" value="&lt;div&gt;verify&lt;br&gt;&lt;/div&gt;" style="ellipse;whiteSpace=wrap;html=1;" parent="1" vertex="1">
          <mxGeometry x="440" y="525" width="60" height="40" as="geometry" />
        </mxCell>
        <mxCell id="s0QtwD_j4Ik0lY6Wr4WI-33" style="edgeStyle=orthogonalEdgeStyle;orthogonalLoop=1;jettySize=auto;html=1;exitX=0;exitY=0.5;exitDx=0;exitDy=0;entryX=0.5;entryY=1;entryDx=0;entryDy=0;curved=1;dashed=1;endArrow=open;endFill=0;" parent="1" source="s0QtwD_j4Ik0lY6Wr4WI-28" target="s0QtwD_j4Ik0lY6Wr4WI-4" edge="1">
          <mxGeometry relative="1" as="geometry" />
        </mxCell>
        <mxCell id="s0QtwD_j4Ik0lY6Wr4WI-37" value="&amp;lt;&amp;lt;extends&amp;gt;&amp;gt;" style="edgeLabel;html=1;align=center;verticalAlign=middle;resizable=0;points=[];" parent="s0QtwD_j4Ik0lY6Wr4WI-33" vertex="1" connectable="0">
          <mxGeometry x="-0.1169" y="-7" relative="1" as="geometry">
            <mxPoint as="offset" />
          </mxGeometry>
        </mxCell>
        <mxCell id="s0QtwD_j4Ik0lY6Wr4WI-28" value="display error" style="ellipse;whiteSpace=wrap;html=1;" parent="1" vertex="1">
          <mxGeometry x="440" y="600" width="60" height="40" as="geometry" />
        </mxCell>
        <mxCell id="s0QtwD_j4Ik0lY6Wr4WI-35" style="edgeStyle=orthogonalEdgeStyle;orthogonalLoop=1;jettySize=auto;html=1;exitX=0;exitY=0.5;exitDx=0;exitDy=0;entryX=0.5;entryY=0;entryDx=0;entryDy=0;curved=1;dashed=1;endArrow=open;endFill=0;" parent="1" source="s0QtwD_j4Ik0lY6Wr4WI-34" target="s0QtwD_j4Ik0lY6Wr4WI-4" edge="1">
          <mxGeometry relative="1" as="geometry" />
        </mxCell>
        <mxCell id="s0QtwD_j4Ik0lY6Wr4WI-38" value="&amp;lt;&amp;lt;extends&amp;gt;&amp;gt;" style="edgeLabel;html=1;align=center;verticalAlign=middle;resizable=0;points=[];" parent="s0QtwD_j4Ik0lY6Wr4WI-35" vertex="1" connectable="0">
          <mxGeometry x="-0.3974" y="2" relative="1" as="geometry">
            <mxPoint x="-17" as="offset" />
          </mxGeometry>
        </mxCell>
        <mxCell id="s0QtwD_j4Ik0lY6Wr4WI-34" value="display token" style="ellipse;whiteSpace=wrap;html=1;" parent="1" vertex="1">
          <mxGeometry x="440" y="450" width="60" height="40" as="geometry" />
        </mxCell>
        <mxCell id="s0QtwD_j4Ik0lY6Wr4WI-44" value="NODE API" style="text;html=1;strokeColor=none;fillColor=none;align=center;verticalAlign=middle;whiteSpace=wrap;rounded=0;" parent="1" vertex="1">
          <mxGeometry x="365" y="205" width="60" height="30" as="geometry" />
        </mxCell>
        <mxCell id="s0QtwD_j4Ik0lY6Wr4WI-45" value="Email Service" style="shape=umlActor;verticalLabelPosition=bottom;verticalAlign=top;html=1;outlineConnect=0;" parent="1" vertex="1">
          <mxGeometry x="780" y="270" width="30" height="60" as="geometry" />
        </mxCell>
        <mxCell id="s0QtwD_j4Ik0lY6Wr4WI-53" style="edgeStyle=orthogonalEdgeStyle;orthogonalLoop=1;jettySize=auto;html=1;exitX=1;exitY=0.5;exitDx=0;exitDy=0;entryX=0.5;entryY=0.5;entryDx=0;entryDy=0;entryPerimeter=0;curved=1;endArrow=none;endFill=0;" parent="1" source="s0QtwD_j4Ik0lY6Wr4WI-46" target="s0QtwD_j4Ik0lY6Wr4WI-45" edge="1">
          <mxGeometry relative="1" as="geometry" />
        </mxCell>
        <mxCell id="s0QtwD_j4Ik0lY6Wr4WI-46" value="confirm email" style="ellipse;whiteSpace=wrap;html=1;" parent="1" vertex="1">
          <mxGeometry x="600" y="275" width="75" height="50" as="geometry" />
        </mxCell>
        <mxCell id="s0QtwD_j4Ik0lY6Wr4WI-59" style="edgeStyle=orthogonalEdgeStyle;rounded=0;orthogonalLoop=1;jettySize=auto;html=1;exitX=0.5;exitY=0;exitDx=0;exitDy=0;exitPerimeter=0;endArrow=open;endFill=0;" parent="1" source="s0QtwD_j4Ik0lY6Wr4WI-54" target="s0QtwD_j4Ik0lY6Wr4WI-1" edge="1">
          <mxGeometry relative="1" as="geometry" />
        </mxCell>
        <mxCell id="s0QtwD_j4Ik0lY6Wr4WI-54" value="New User" style="shape=umlActor;verticalLabelPosition=bottom;verticalAlign=top;html=1;outlineConnect=0;" parent="1" vertex="1">
          <mxGeometry x="20" y="500" width="20" height="40" as="geometry" />
        </mxCell>
        <mxCell id="s0QtwD_j4Ik0lY6Wr4WI-60" style="edgeStyle=orthogonalEdgeStyle;rounded=0;orthogonalLoop=1;jettySize=auto;html=1;exitX=0.5;exitY=0;exitDx=0;exitDy=0;exitPerimeter=0;endArrow=open;endFill=0;" parent="1" source="s0QtwD_j4Ik0lY6Wr4WI-56" target="s0QtwD_j4Ik0lY6Wr4WI-1" edge="1">
          <mxGeometry relative="1" as="geometry" />
        </mxCell>
        <mxCell id="s0QtwD_j4Ik0lY6Wr4WI-56" value="Old User" style="shape=umlActor;verticalLabelPosition=bottom;verticalAlign=top;html=1;outlineConnect=0;" parent="1" vertex="1">
          <mxGeometry x="90" y="500" width="20" height="40" as="geometry" />
        </mxCell>
      </root>
    </mxGraphModel>
  </diagram>
</mxfile>
